<?xml version="1.0" standalone="no"?>
<!DOCTYPE svg PUBLIC "-//W3C//DTD SVG 20010904//EN"
 "http://www.w3.org/TR/2001/REC-SVG-20010904/DTD/svg10.dtd">
<svg version="1.0" xmlns="http://www.w3.org/2000/svg"
 width="500.000000pt" height="500.000000pt" viewBox="0 0 500.000000 500.000000"
 preserveAspectRatio="xMidYMid meet">

<g transform="translate(0.000000,500.000000) scale(0.100000,-0.100000)"
fill="#000000" stroke="none">
<path d="M0 2500 l0 -2500 2500 0 2500 0 0 2500 0 2500 -2500 0 -2500 0 0
-2500z m2518 1210 c37 -17 49 -18 86 -8 53 14 101 5 157 -30 36 -23 50 -27 78
-21 74 15 140 -9 192 -69 31 -36 39 -40 94 -44 145 -10 300 -130 335 -258 4
-14 22 -33 45 -45 21 -11 52 -37 69 -58 27 -34 31 -48 34 -112 4 -69 6 -76 41
-113 51 -53 67 -113 51 -182 -11 -46 -10 -58 10 -121 54 -168 -14 -358 -161
-446 -142 -85 -299 -80 -432 14 -26 18 -49 33 -52 33 -2 0 -16 -21 -29 -47
-87 -170 -288 -258 -474 -209 -69 19 -155 71 -196 118 l-33 38 -28 -30 c-31
-32 -118 -80 -146 -80 -11 0 -24 -19 -38 -54 -39 -94 -108 -141 -200 -134 -45
3 -69 12 -120 46 -58 38 -71 42 -125 42 -136 0 -238 91 -261 230 -6 32 -19 58
-49 91 -48 54 -66 103 -66 180 0 54 26 127 57 161 14 16 13 19 -15 43 -68 57
-91 168 -52 244 10 22 37 54 60 73 34 30 40 41 40 74 0 78 92 223 174 273 19
12 57 55 86 97 47 68 60 80 116 105 35 16 69 29 75 29 7 0 34 21 61 46 87 81
196 117 344 112 55 -1 91 3 119 15 53 22 101 21 153 -3z m-857 -2120 c24 -14
25 -50 1 -50 -10 0 -23 5 -30 12 -6 6 -15 8 -19 4 -5 -5 0 -13 11 -20 47 -28
66 -49 66 -71 0 -50 -89 -75 -125 -35 -22 24 -13 55 13 45 36 -15 52 -17 52
-7 0 6 -9 14 -20 17 -32 10 -50 34 -50 65 0 44 53 65 101 40z m214 -15 c0 -14
-8 -21 -27 -23 -26 -3 -27 -6 -30 -70 -3 -59 -5 -67 -23 -67 -18 0 -20 8 -23
68 -3 63 -4 67 -27 67 -27 0 -39 14 -31 36 5 12 22 14 83 12 70 -3 78 -5 78
-23z m70 3 c2 -13 6 -43 7 -68 3 -41 5 -45 28 -45 24 0 25 3 28 68 3 68 3 68
30 65 25 -3 27 -7 30 -52 6 -94 -21 -136 -86 -136 -60 0 -85 34 -90 120 -4 70
-4 70 22 70 18 0 27 -6 31 -22z m292 -2 c23 -20 28 -32 28 -70 0 -66 -27 -90
-103 -91 l-57 0 -3 93 -3 92 55 0 c44 0 61 -5 83 -24z m208 -1 c0 -16 -8 -21
-42 -23 -51 -4 -57 -19 -10 -24 24 -2 32 -8 32 -23 0 -15 -8 -21 -32 -23 -47
-5 -41 -20 10 -24 34 -2 42 -7 42 -23 0 -18 -7 -20 -65 -20 l-65 0 -3 93 -3
93 68 -3 c60 -3 68 -5 68 -23z m119 -17 l36 -42 0 42 c0 38 3 42 24 42 13 0
27 -7 30 -16 9 -24 7 -147 -3 -163 -13 -20 -42 -6 -71 34 -14 19 -28 35 -32
35 -4 0 -8 -17 -10 -37 -2 -30 -7 -38 -23 -38 -18 0 -20 8 -23 93 -3 86 -1 92
17 92 11 0 36 -19 55 -42z m284 20 c-2 -15 -11 -24 -25 -26 -21 -3 -23 -9 -23
-57 0 -66 -7 -85 -30 -85 -23 0 -30 19 -30 86 0 51 -1 54 -25 54 -20 0 -25 5
-25 25 0 25 1 25 81 25 78 0 80 -1 77 -22z m90 -15 c3 -29 7 -33 33 -33 27 0
29 3 29 35 0 30 3 35 24 35 13 0 27 -7 30 -16 11 -30 6 -140 -8 -159 -19 -27
-46 -13 -46 25 0 27 -3 30 -29 30 -26 0 -30 -4 -33 -32 -2 -25 -8 -33 -23 -33
-18 0 -20 8 -23 93 -3 92 -2 93 20 90 18 -2 24 -10 26 -35z m197 15 c2 -13 6
-43 7 -68 3 -41 5 -45 28 -45 24 0 25 3 28 68 3 68 3 68 30 65 25 -3 27 -7 30
-52 6 -94 -21 -136 -86 -136 -60 0 -85 34 -90 120 -4 70 -4 70 22 70 18 0 27
-6 31 -22z m289 3 c9 -10 16 -31 16 -47 -1 -16 2 -41 5 -56 5 -19 1 -32 -15
-48 -17 -17 -31 -20 -78 -18 l-57 3 -3 93 -3 92 59 0 c45 0 63 -4 76 -19z"/>
<path d="M2383 3697 c-17 -7 -35 -15 -39 -19 -4 -5 -16 -8 -26 -8 -23 0 -23
-20 -3 -235 8 -88 15 -161 15 -162 0 0 14 -6 31 -12 31 -11 33 -9 148 98 64
60 151 145 194 189 l79 79 -27 22 c-45 35 -100 45 -152 28 -42 -14 -48 -14
-77 3 -41 25 -103 32 -143 17z"/>
<path d="M2103 3665 c-78 -17 -155 -58 -194 -103 l-30 -33 88 -67 c308 -236
290 -224 321 -208 l28 14 -17 197 c-9 108 -19 198 -20 200 -13 12 -123 12
-176 0z"/>
<path d="M2821 3621 c-11 -7 -3 -41 44 -180 31 -95 54 -175 51 -178 -7 -7 -10
2 -72 190 -27 81 -52 147 -56 147 -4 0 -92 -83 -196 -184 -155 -152 -187 -188
-179 -201 5 -10 7 -37 4 -60 l-6 -42 164 -148 c91 -81 165 -152 165 -157 0
-11 -29 13 -213 180 -75 67 -138 118 -141 113 -4 -5 -19 -12 -35 -16 -25 -5
-29 -12 -39 -63 l-11 -57 5 63 c4 43 1 62 -6 62 -7 0 -25 13 -40 30 l-28 30
-133 -25 c-73 -14 -134 -23 -137 -20 -7 7 13 12 143 36 66 12 123 24 126 28 4
3 9 18 13 32 5 24 -8 36 -174 163 -99 75 -184 136 -189 136 -7 0 -12 -62 -14
-162 l-3 -163 -2 173 c-1 94 -3 172 -4 172 -2 0 -28 -9 -58 -21 -65 -24 -94
-50 -146 -129 -21 -33 -47 -63 -56 -66 -32 -10 -127 -115 -153 -169 -33 -67
-44 -135 -23 -135 8 0 85 16 171 35 145 33 196 41 186 31 -2 -3 -85 -23 -183
-45 -133 -30 -189 -47 -218 -67 -102 -71 -114 -195 -27 -280 l39 -38 93 89
c50 50 143 139 205 200 61 60 112 105 112 99 0 -5 -87 -96 -193 -202 l-193
-192 135 -2 136 -1 -141 -7 c-78 -4 -147 -11 -153 -14 -6 -4 -23 -28 -38 -54
-24 -39 -28 -58 -28 -117 1 -78 14 -111 69 -170 27 -28 38 -51 46 -94 22 -120
104 -198 219 -208 92 -9 91 -10 92 186 1 91 5 218 9 281 5 74 6 16 3 -165 l-4
-280 47 70 c26 39 49 73 53 77 3 3 101 14 216 23 116 9 220 20 232 25 18 7 22
20 28 75 4 36 12 68 17 71 10 6 8 -12 -9 -113 -4 -28 1 -39 46 -86 155 -164
406 -165 560 -2 51 54 97 134 83 146 -4 3 -131 32 -282 64 -151 31 -279 62
-285 67 -7 7 -2 9 15 5 269 -60 555 -117 565 -114 6 3 15 24 19 46 3 23 10 41
15 41 4 0 3 -21 -2 -46 -11 -46 -11 -47 23 -76 50 -42 116 -74 182 -87 110
-23 239 20 321 108 58 62 83 112 98 195 13 68 12 77 -24 208 l-13 47 -167 -79
c-92 -43 -165 -74 -162 -69 10 15 -13 10 -56 -12 -43 -21 -75 -19 -66 5 4 10
-2 16 -16 18 -23 3 -39 48 -17 48 8 0 10 9 6 24 -7 27 15 50 57 60 20 5 27 3
27 -9 0 -11 6 -14 24 -9 18 4 27 1 35 -14 8 -15 8 -22 -2 -26 -9 -3 -8 -8 3
-18 9 -7 14 -21 12 -30 -2 -10 1 -18 6 -18 11 0 222 99 222 104 0 2 -49 -9
-110 -24 -60 -15 -110 -25 -110 -20 0 4 66 24 148 45 81 21 155 42 165 47 13
7 17 21 17 59 0 59 -17 95 -64 136 -33 30 -34 32 -29 90 6 69 -17 128 -64 161
-63 45 -59 50 -146 -218 -44 -135 -81 -247 -83 -249 -17 -18 -3 35 63 237 41
128 73 236 70 239 -3 3 -19 -4 -35 -16 -17 -12 -36 -21 -43 -21 -7 0 10 16 39
36 29 20 52 44 52 53 -1 66 -92 171 -192 220 -59 29 -178 54 -178 37 0 -3 34
-74 76 -157 41 -83 73 -153 70 -156 -3 -3 -39 63 -81 147 -42 84 -80 149 -84
144 -4 -5 -20 -54 -36 -109 -27 -99 -44 -143 -45 -117 0 7 16 69 36 138 l36
125 -26 33 c-13 18 -40 41 -59 50 -37 17 -113 21 -136 7z m197 -396 c12 -14
22 -34 22 -45 0 -14 12 -21 50 -29 69 -15 78 -14 90 8 10 20 63 51 86 51 51 0
102 -65 90 -114 -25 -99 -158 -99 -185 1 -7 26 -13 29 -71 37 -48 7 -65 6 -68
-3 -22 -67 -138 -66 -170 2 -12 25 -18 27 -75 28 -34 1 -129 5 -212 9 l-150 6
215 2 216 2 11 30 c21 56 108 64 151 15z m-1152 -65 c8 0 14 5 14 10 0 15 56
-16 63 -34 4 -9 2 -18 -3 -21 -15 -9 -12 -25 5 -25 9 0 12 -6 9 -15 -4 -8 -10
-13 -14 -10 -5 3 -11 1 -14 -4 -4 -5 -2 -13 4 -16 17 -10 -6 -33 -40 -40 -39
-9 -71 2 -68 23 2 12 -3 16 -15 14 -15 -3 -17 1 -12 17 4 12 2 21 -4 21 -6 0
-11 9 -11 21 0 25 61 90 68 71 2 -6 10 -12 18 -12z m1019 -213 c-21 -67 -43
-118 -51 -121 -9 -3 -12 -11 -9 -16 5 -8 11 -8 19 -1 16 14 26 4 19 -17 -5
-11 -2 -14 10 -9 20 7 35 -32 17 -43 -7 -4 -9 -16 -6 -27 13 -42 -62 -75 -112
-49 -29 15 -51 46 -32 46 6 0 10 5 10 10 0 6 -7 10 -15 10 -17 0 -17 5 -6 35
5 11 14 20 22 20 8 0 13 8 11 17 -2 12 6 19 25 24 15 3 33 7 38 9 6 1 28 58
49 126 21 68 41 119 43 112 2 -6 -12 -63 -32 -126z m-801 41 c69 -34 123 -65
120 -69 -4 -7 -228 104 -248 122 -21 19 9 7 128 -53z m1096 48 c-40 -39 -286
-236 -294 -236 -14 0 1 14 154 139 74 61 139 111 144 111 6 0 4 -6 -4 -14z
m-887 -88 c4 -10 8 -9 16 2 8 12 13 11 32 -5 29 -27 39 -57 30 -92 -5 -18 -14
-28 -27 -28 -10 0 -19 -7 -19 -15 0 -10 -12 -16 -39 -18 -33 -3 -38 -1 -32 14
5 13 2 15 -14 11 -17 -4 -20 -2 -15 14 4 13 2 19 -9 19 -10 0 -16 9 -16 25 0
16 6 25 16 25 11 0 13 6 9 19 -10 31 56 58 68 29z m-160 -164 l-83 -45 -1 -52
-1 -52 -12 47 -11 46 -60 -25 c-100 -41 -105 -43 -105 -34 0 4 42 25 93 45 50
21 124 56 162 77 39 21 77 39 85 39 8 0 -22 -21 -67 -46z m57 -56 c-28 -40
-58 -82 -66 -92 -7 -11 -16 -17 -19 -14 -7 7 116 178 128 178 4 0 -15 -33 -43
-72z m215 10 c27 -35 52 -67 55 -71 4 -5 62 6 129 23 67 18 125 30 128 27 6
-6 -63 -28 -150 -47 -31 -7 -57 -16 -57 -20 0 -3 113 -37 250 -75 138 -38 250
-73 250 -78 0 -4 -8 -6 -18 -3 -11 4 -124 35 -252 71 -128 36 -242 67 -252 71
-15 4 -24 -7 -48 -62 -17 -37 -33 -65 -36 -62 -3 3 7 31 21 63 14 32 25 62 25
68 0 6 -19 35 -42 66 -66 86 -70 91 -60 91 5 0 31 -28 57 -62z m-587 -34 c16
-11 21 -22 17 -35 -4 -13 -2 -19 9 -19 35 0 9 -73 -33 -94 -26 -14 -30 -14
-35 0 -5 13 -9 14 -21 4 -12 -10 -20 -9 -41 5 -21 14 -25 22 -20 46 3 16 1 29
-4 29 -18 0 -10 21 19 51 33 33 74 38 109 13z m1235 -11 c64 -15 117 -30 117
-35 0 -5 -10 -6 -22 -3 -163 39 -249 63 -233 64 11 1 73 -11 138 -26z m-1023
-73 c0 -5 7 -10 15 -10 8 0 15 5 15 10 0 6 7 10 15 10 9 0 12 -6 8 -17 -5 -13
-2 -15 14 -11 15 4 24 -1 32 -19 15 -34 14 -53 -5 -53 -11 0 -14 -6 -9 -21 9
-27 -19 -48 -67 -49 -28 0 -42 7 -62 31 -30 35 -32 58 -11 99 17 33 55 54 55
30z m1160 -65 c-7 -8 -17 -15 -22 -15 -6 0 -5 7 2 15 7 8 17 15 22 15 6 0 5
-7 -2 -15z m-56 -1 c9 -3 14 -10 11 -15 -8 -12 17 -49 32 -49 35 0 -4 -83 -45
-98 -23 -8 -31 -7 -40 7 -9 13 -12 14 -20 2 -8 -11 -15 -9 -36 12 -29 29 -34
62 -10 71 13 5 14 9 5 20 -9 11 -6 18 15 35 27 21 58 26 88 15z m93 -30 c-16
-8 -34 -13 -40 -11 -7 3 -1 9 13 15 38 16 59 13 27 -4z m-948 -60 c2 -2 2 -6
0 -8 -7 -6 -139 46 -139 55 0 7 128 -36 139 -47z m109 35 c-2 -6 3 -14 10 -16
6 -3 12 1 12 8 0 8 7 6 20 -6 22 -20 27 -61 8 -68 -10 -4 -10 -7 -1 -18 10
-10 9 -17 -9 -36 -23 -25 -54 -30 -61 -10 -3 9 -7 9 -20 -1 -14 -12 -20 -10
-42 12 -28 28 -33 71 -9 80 13 5 14 9 5 20 -10 11 -7 18 11 30 26 18 79 22 76
5z"/>
<path d="M2050 2141 l-175 -16 -53 -78 c-31 -44 -51 -84 -48 -92 8 -22 94 -74
134 -81 74 -14 168 47 193 125 16 50 24 57 75 70 29 7 61 26 87 51 l42 39 -40
-1 c-22 0 -119 -8 -215 -17z"/>
<path d="M2152 1508 c4 -51 28 -62 53 -24 21 32 6 66 -31 66 -23 0 -25 -3 -22
-42z"/>
<path d="M3347 1554 c-14 -14 -6 -24 19 -24 16 0 24 5 22 13 -5 14 -31 21 -41
11z"/>
<path d="M3340 1475 c0 -12 7 -15 25 -13 14 2 26 8 26 13 0 6 -12 11 -26 13
-18 2 -25 -1 -25 -13z"/>
</g>
</svg>
